<svg xmlns="http://www.w3.org/2000/svg" xmlns:xlink="http://www.w3.org/1999/xlink" viewBox="0 0 400 400"><defs><style>.cls-1{isolation:isolate;}.cls-2{fill:#fff;}.cls-3{fill:url(#linear-gradient);}.cls-24,.cls-4{mix-blend-mode:overlay;}.cls-5{fill:#e3e3e3;}.cls-6{fill:#c6c6c6;}.cls-7{fill:#aaa;}.cls-8{fill:#8e8e8e;}.cls-9{fill:#717171;}.cls-10{fill:#555;}.cls-11{fill:#393939;}.cls-12{fill:#1c1c1c;}.cls-13,.cls-24{opacity:0.33;}.cls-14{fill:#ccc;}.cls-15{fill:#999;}.cls-16{fill:#666;}.cls-17{fill:#333;}.cls-18{fill:#b2b2b2;}.cls-19{fill:#4d4d4d;}.cls-20{fill:#e5e5e5;}.cls-21{fill:#c1272d;}.cls-22{fill:gray;}.cls-23{fill:#1a1a1a;}</style><linearGradient id="linear-gradient" x1="45.58" y1="183" x2="354.42" y2="183" gradientUnits="userSpaceOnUse"><stop offset="0" stop-color="#fec91c"/><stop offset="0.5" stop-color="#7fa940"/><stop offset="1" stop-color="#0577b5"/></linearGradient></defs><title>AA-logo</title><g class="cls-1"><g id="Twitter_Logo" data-name="Twitter Logo"><circle class="cls-2" cx="200" cy="200" r="200"/><polygon class="cls-3" points="332.37 255.09 332.37 255.08 332.36 255.07 321.34 219.04 321.33 219.03 310.31 183 310.3 182.98 310.3 182.98 299.28 146.96 299.27 146.94 288.25 110.91 288.24 110.89 288.24 110.89 277.21 74.87 266.18 74.87 255.15 74.87 244.12 74.87 233.09 74.87 222.06 74.87 211.03 74.87 200 74.87 188.97 74.87 177.94 74.87 166.91 74.87 155.88 74.87 144.85 74.87 133.82 74.87 122.79 74.87 111.77 110.89 111.76 110.91 111.76 110.91 100.73 146.94 100.73 146.96 89.7 182.98 89.7 183 89.7 183 78.67 219.03 78.67 219.04 67.64 255.08 67.64 255.09 45.58 255.1 45.58 291.12 56.6 291.12 56.61 291.13 56.61 291.12 67.64 291.12 78.67 291.12 78.67 291.13 78.67 291.12 89.7 291.12 100.73 291.12 100.73 291.13 100.73 291.12 111.76 291.12 122.79 291.12 122.79 291.13 122.79 291.12 133.82 291.12 144.85 291.12 144.85 291.13 144.85 291.12 155.88 291.12 166.91 291.12 166.91 291.13 166.91 291.12 177.94 291.12 188.97 291.12 188.97 291.13 188.97 291.12 200 291.12 211.03 291.12 211.03 291.13 211.04 291.12 222.06 291.12 233.09 291.12 233.09 291.13 233.1 291.12 244.12 291.12 255.15 291.12 255.15 291.13 255.16 291.12 266.18 291.12 277.21 291.12 277.21 291.13 277.22 291.12 288.24 291.12 299.27 291.12 299.28 291.13 299.28 291.12 310.3 291.12 321.33 291.12 321.34 291.13 321.34 291.12 332.36 291.12 343.39 291.12 343.4 291.13 343.4 291.12 354.42 291.12 354.42 255.12 332.37 255.09"/><g class="cls-4"><rect class="cls-2" x="45.58" y="255.08" width="22.06" height="36.04"/><polygon class="cls-5" points="67.64 255.08 67.64 291.12 89.7 291.12 89.7 183 67.64 255.08"/><polygon class="cls-6" points="111.76 110.91 89.7 183 89.7 291.12 111.76 291.12 111.76 255.08 111.76 110.91"/><path class="cls-7" d="M111.76,110.91l11-36h11V183h0v36h-11l-11,36Zm0,144.17v36h22.06v-36Z"/><path class="cls-8" d="M155.88,183v36H133.82V183Zm0-72.1v-36H133.82V183Z"/><path class="cls-9" d="M177.94,183v36H155.88V183Zm0,0V74.87H155.88v36Z"/><path class="cls-10" d="M200,255.08v36H177.94v-36ZM177.94,183h0v36h11l11,36V110.91l-11-36h-11V183Z"/><polygon class="cls-11" points="200 110.91 200 255.08 200 291.12 222.06 291.12 222.06 183 200 110.91"/><polygon class="cls-12" points="222.06 183 222.06 291.12 244.12 291.12 244.12 255.08 222.06 183"/><rect x="244.12" y="255.08" width="22.06" height="36.04"/><g class="cls-13"><polygon class="cls-2" points="111.76 110.91 122.79 74.87 155.88 74.87 188.97 74.87 200 110.91 111.76 110.91"/><polygon class="cls-14" points="211.03 146.95 166.91 146.95 155.88 110.91 144.85 146.95 100.73 146.95 111.76 110.91 200 110.91 211.03 146.95"/><polygon class="cls-15" points="133.82 183 89.7 183 100.73 146.95 144.85 146.95 133.82 183"/><polygon class="cls-15" points="166.91 146.95 211.03 146.95 222.06 183 177.94 183 166.91 146.95"/><polygon class="cls-16" points="133.82 183.01 133.82 183.01 155.88 183.01 177.94 183.01 177.94 183.01 177.94 183 222.06 183 233.09 219.04 78.67 219.04 89.7 183 133.82 183 133.82 183.01"/><polygon class="cls-17" points="244.12 255.08 200 255.08 188.97 219.04 177.94 219.04 155.88 219.04 133.82 219.04 122.79 219.04 111.76 255.08 67.64 255.08 78.67 219.04 233.09 219.04 244.12 255.08"/><polygon points="200 255.08 200 255.08 244.12 255.08 244.12 255.08 266.18 255.08 266.18 291.12 177.94 291.12 177.94 255.08 200 255.08"/><polygon points="67.64 255.08 67.64 255.08 111.76 255.08 111.76 255.08 133.82 255.08 133.82 291.12 45.58 291.12 45.58 255.08 67.64 255.08"/></g><g class="cls-13"><polygon class="cls-15" points="188.97 291.12 177.94 291.12 177.94 255.09 188.97 291.12"/><polygon class="cls-15" points="155.88 183.01 155.88 183.01 166.91 219.04 155.88 219.04 144.85 219.04 133.82 183.01 155.88 183.01"/><polygon class="cls-15" points="111.76 110.91 122.79 74.87 144.85 146.96 133.82 183 111.76 110.91"/><polygon class="cls-18" points="144.85 146.96 122.79 74.87 122.79 74.87 144.85 74.87 155.88 110.91 144.85 146.96"/><polygon class="cls-18" points="177.94 183.01 177.94 183.01 188.97 219.04 177.94 219.04 166.91 219.04 155.88 183.01 177.94 183.01"/><polygon class="cls-18" points="177.94 255.08 200 255.08 211.03 291.12 188.97 291.12 177.94 255.09 177.94 255.08"/><polygon class="cls-16" points="100.73 146.96 122.79 219.05 111.76 255.08 133.82 255.08 133.82 255.09 133.82 291.12 122.78 291.12 89.7 183 100.73 146.96"/><polygon class="cls-2" points="266.18 255.08 266.18 291.12 255.15 291.12 244.12 255.08 266.18 255.08"/><polygon class="cls-14" points="200 255.08 188.97 219.04 188.97 219.04 177.94 183.01 177.94 183.01 155.88 110.91 155.88 110.91 144.85 74.87 155.88 74.87 166.91 74.87 233.09 291.12 211.03 291.12 200 255.08 200 255.08"/><polygon class="cls-19" points="89.7 183 122.78 291.12 100.72 291.12 78.67 219.05 89.7 183"/><polygon class="cls-20" points="188.97 74.87 244.12 255.08 244.12 255.08 255.15 291.12 233.09 291.12 166.91 74.87 188.97 74.87"/><polygon class="cls-21" points="133.82 255.09 133.82 255.08 133.82 255.08 133.82 255.09"/><polygon class="cls-22" points="133.82 183 133.82 183.01 133.82 183.01 133.82 183.01 144.85 219.04 133.82 219.04 122.79 219.04 122.79 219.05 100.73 146.96 111.76 110.91 133.82 183"/><polygon class="cls-23" points="45.58 255.08 67.63 255.08 78.66 291.12 56.6 291.12 45.58 255.1 45.58 255.08"/><polygon class="cls-17" points="67.64 255.08 78.67 219.05 100.72 291.12 78.66 291.12 67.63 255.08 67.64 255.08"/><polygon points="56.6 291.12 45.58 291.12 45.58 255.1 56.6 291.12"/></g><g class="cls-13"><polygon points="266.18 291.12 255.16 291.12 266.18 255.1 266.18 291.12"/><polygon class="cls-23" points="266.18 255.08 266.18 255.1 255.16 291.12 233.09 291.12 244.12 255.08 266.18 255.08"/><polygon class="cls-17" points="244.12 255.08 244.12 255.08 233.09 291.12 211.03 291.12 233.09 219.04 244.12 255.08"/><polygon class="cls-19" points="233.09 219.04 211.03 291.12 188.97 291.12 222.06 183 233.09 219.04"/><polygon class="cls-16" points="177.94 255.08 200 255.08 188.97 219.04 211.03 146.96 222.06 183 188.97 291.12 177.94 291.12 177.94 255.09 177.94 255.08 177.94 255.08"/><polygon class="cls-22" points="177.94 183.01 177.94 183.01 177.94 183 200 110.91 211.03 146.96 188.97 219.04 188.97 219.04 177.94 219.04 166.91 219.04 177.94 183.01 177.94 183.01"/><path class="cls-15" d="M177.94,183l-11-36.05L189,74.87l11,36Zm-22.06,0h0l-11,36h22.06l11-36Zm-22.06,72.07-11,36h11Z"/><polygon class="cls-18" points="188.97 74.87 166.91 146.95 155.88 110.91 133.82 183.01 133.82 183.01 155.88 183.01 144.85 219.04 133.82 219.04 122.79 219.04 111.76 255.08 133.82 255.08 133.82 255.08 122.79 291.12 100.73 291.12 166.91 74.87 188.97 74.87"/><polygon class="cls-14" points="155.88 74.87 166.91 74.87 100.73 291.12 78.67 291.12 144.85 74.87 155.88 74.87"/><polygon class="cls-20" points="67.64 255.08 122.79 74.87 144.85 74.87 78.67 291.12 56.61 291.12 67.64 255.08 67.64 255.08"/><polygon class="cls-2" points="67.64 255.08 56.61 291.12 45.58 291.12 45.58 255.08 67.64 255.08"/></g></g><g class="cls-4"><rect class="cls-2" x="89.68" y="255.08" width="22.06" height="36.04"/><polygon class="cls-5" points="111.74 255.08 111.74 291.12 133.8 291.12 133.8 183 111.74 255.08"/><polygon class="cls-6" points="155.86 110.91 133.8 183 133.8 291.12 155.86 291.12 155.86 255.08 155.86 110.91"/><path class="cls-7" d="M155.86,110.91l11-36h11V183h0v36h-11l-11,36Zm0,144.17v36h22.06v-36Z"/><path class="cls-8" d="M200,183v36H177.92V183Zm0-72.1v-36H177.92V183Z"/><path class="cls-9" d="M222,183v36H200V183Zm0,0V74.87H200v36Z"/><path class="cls-10" d="M244.1,255.08v36H222v-36Zm-22-72.07h0v36h11l11,36V110.91l-11-36H222V183Z"/><polygon class="cls-11" points="244.1 110.91 244.1 255.08 244.1 291.12 266.16 291.12 266.16 183 244.1 110.91"/><polygon class="cls-12" points="266.16 183 266.16 291.12 288.22 291.12 288.22 255.08 266.16 183"/><rect x="288.22" y="255.08" width="22.06" height="36.04"/></g><g class="cls-24"><polygon class="cls-2" points="244.1 110.91 233.07 74.87 199.98 74.87 166.89 74.87 155.86 110.91 244.1 110.91"/><polygon class="cls-14" points="144.83 146.95 188.95 146.95 199.98 110.91 211.01 146.95 255.13 146.95 244.1 110.91 155.86 110.91 144.83 146.95"/><polygon class="cls-15" points="222.04 183 266.16 183 255.13 146.95 211.01 146.95 222.04 183"/><polygon class="cls-15" points="188.95 146.95 144.83 146.95 133.8 183 177.92 183 188.95 146.95"/><polygon class="cls-16" points="222.04 183.01 222.04 183.01 199.98 183.01 177.92 183.01 177.92 183.01 177.92 183 133.8 183 122.77 219.04 277.19 219.04 266.16 183 222.04 183 222.04 183.01"/><polygon class="cls-17" points="111.74 255.08 155.86 255.08 166.89 219.04 177.92 219.04 199.98 219.04 222.04 219.04 233.07 219.04 244.1 255.08 288.22 255.08 277.19 219.04 122.77 219.04 111.74 255.08"/><polygon points="155.86 255.08 155.86 255.08 111.74 255.08 111.74 255.08 89.68 255.08 89.68 291.12 177.92 291.12 177.92 255.08 155.86 255.08"/><polygon points="288.22 255.08 288.22 255.08 244.1 255.08 244.1 255.08 222.04 255.08 222.04 291.12 310.28 291.12 310.28 255.08 288.22 255.08"/></g><g class="cls-24"><polygon class="cls-15" points="166.89 291.12 177.92 291.12 177.92 255.09 166.89 291.12"/><polygon class="cls-15" points="199.98 183.01 199.98 183.01 188.95 219.04 199.98 219.04 211.01 219.04 222.04 183.01 199.98 183.01"/><polygon class="cls-15" points="244.1 110.91 233.07 74.87 211.01 146.96 222.04 183 244.1 110.91"/><polygon class="cls-18" points="211.01 146.96 233.07 74.87 233.07 74.87 211.01 74.87 199.98 110.91 211.01 146.96"/><polygon class="cls-18" points="177.92 183.01 177.92 183.01 166.89 219.04 177.92 219.04 188.95 219.04 199.98 183.01 177.92 183.01"/><polygon class="cls-18" points="177.92 255.08 155.86 255.08 144.83 291.12 166.89 291.12 177.92 255.09 177.92 255.08"/><polygon class="cls-16" points="255.13 146.96 233.07 219.05 244.1 255.08 222.04 255.08 222.04 255.09 222.04 291.12 233.08 291.12 266.16 183 255.13 146.96"/><polygon class="cls-2" points="89.68 255.08 89.68 291.12 100.71 291.12 111.74 255.08 89.68 255.08"/><polygon class="cls-14" points="155.86 255.08 166.89 219.04 166.89 219.04 177.92 183.01 177.92 183.01 199.98 110.91 199.98 110.91 211.01 74.87 199.98 74.87 188.95 74.87 122.77 291.12 144.83 291.12 155.86 255.08 155.86 255.08"/><polygon class="cls-19" points="266.16 183 233.08 291.12 255.14 291.12 277.19 219.05 266.16 183"/><polygon class="cls-20" points="166.89 74.87 111.74 255.08 111.74 255.08 100.71 291.12 122.77 291.12 188.95 74.87 166.89 74.87"/><polygon class="cls-21" points="222.04 255.09 222.04 255.08 222.04 255.08 222.04 255.09"/><polygon class="cls-22" points="222.04 183 222.04 183.01 222.04 183.01 222.04 183.01 211.01 219.04 222.04 219.04 233.07 219.04 233.07 219.05 255.13 146.96 244.1 110.91 222.04 183"/><polygon class="cls-23" points="310.28 255.08 288.23 255.08 277.2 291.12 299.26 291.12 310.28 255.1 310.28 255.08"/><polygon class="cls-17" points="288.22 255.08 277.19 219.05 255.14 291.12 277.2 291.12 288.23 255.08 288.22 255.08"/><polygon points="299.26 291.12 310.28 291.12 310.28 255.1 299.26 291.12"/></g><g class="cls-24"><polygon points="89.68 291.12 100.71 291.12 89.68 255.1 89.68 291.12"/><polygon class="cls-23" points="89.68 255.08 89.68 255.1 100.71 291.12 122.77 291.12 111.74 255.08 89.68 255.08"/><polygon class="cls-17" points="111.74 255.08 111.74 255.08 122.77 291.12 144.83 291.12 122.77 219.04 111.74 255.08"/><polygon class="cls-19" points="122.77 219.04 144.83 291.12 166.89 291.12 133.8 183 122.77 219.04"/><polygon class="cls-16" points="177.92 255.08 155.86 255.08 166.89 219.04 144.83 146.96 133.8 183 166.89 291.12 177.92 291.12 177.92 255.09 177.92 255.08 177.92 255.08"/><polygon class="cls-22" points="177.92 183.01 177.92 183.01 177.92 183 155.86 110.91 144.83 146.96 166.89 219.04 166.89 219.04 177.92 219.04 188.95 219.04 177.93 183.01 177.92 183.01"/><path class="cls-15" d="M155.86,110.91l11-36L189,147l-11,36.05ZM177.92,183l11,36H211l-11-36H177.92ZM222,291.12h11l-11-36Z"/><polygon class="cls-18" points="166.89 74.87 188.95 146.95 199.98 110.91 222.04 183.01 222.04 183.01 199.99 183.01 211.01 219.04 222.04 219.04 233.07 219.04 244.1 255.08 222.04 255.08 222.04 255.08 233.07 291.12 255.13 291.12 188.95 74.87 166.89 74.87"/><polygon class="cls-14" points="199.98 74.87 188.95 74.87 255.13 291.12 277.19 291.12 211.01 74.87 199.98 74.87"/><polygon class="cls-20" points="288.22 255.08 233.07 74.87 211.01 74.87 277.19 291.12 299.25 291.12 288.22 255.08 288.22 255.08"/><polygon class="cls-2" points="288.22 255.08 299.25 291.12 310.28 291.12 310.28 255.08 288.22 255.08"/></g><g class="cls-4"><rect class="cls-2" x="133.81" y="255.08" width="22.06" height="36.04"/><polygon class="cls-5" points="155.87 255.08 155.87 291.12 177.93 291.12 177.93 183 155.87 255.08"/><polygon class="cls-6" points="199.99 110.91 177.93 183 177.93 291.12 199.99 291.12 199.99 255.08 199.99 110.91"/><path class="cls-7" d="M200,110.91l11-36h11V183h0v36H211l-11,36Zm0,144.17v36h22.06v-36Z"/><path class="cls-8" d="M244.11,183v36H222.05V183Zm0-72.1v-36H222.05V183Z"/><path class="cls-9" d="M266.17,183v36H244.11V183Zm0,0V74.87H244.11v36Z"/><path class="cls-10" d="M288.23,255.08v36H266.17v-36ZM266.17,183h0v36h11l11,36V110.91l-11-36h-11V183Z"/><polygon class="cls-11" points="288.23 110.91 288.23 255.08 288.23 291.12 310.29 291.12 310.29 183 288.23 110.91"/><polygon class="cls-12" points="310.29 183 310.29 291.12 332.35 291.12 332.35 255.08 310.29 183"/><rect x="332.35" y="255.08" width="22.06" height="36.04"/><g class="cls-13"><polygon class="cls-2" points="288.23 110.91 277.19 74.87 244.1 74.87 211.01 74.87 199.99 110.91 288.23 110.91"/><polygon class="cls-14" points="188.96 146.95 233.08 146.95 244.1 110.91 255.13 146.95 299.25 146.95 288.23 110.91 199.99 110.91 188.96 146.95"/><polygon class="cls-15" points="266.17 183 310.29 183 299.25 146.95 255.13 146.95 266.17 183"/><polygon class="cls-15" points="233.08 146.95 188.96 146.95 177.93 183 222.05 183 233.08 146.95"/><polygon class="cls-16" points="266.17 183.01 266.17 183.01 244.1 183.01 222.04 183.01 222.04 183.01 222.05 183 177.93 183 166.9 219.04 321.31 219.04 310.29 183 266.17 183 266.17 183.01"/><polygon class="cls-17" points="155.87 255.08 199.99 255.08 211.01 219.04 222.04 219.04 244.1 219.04 266.17 219.04 277.19 219.04 288.23 255.08 332.34 255.08 321.31 219.04 166.9 219.04 155.87 255.08"/><polygon points="199.99 255.08 199.99 255.08 155.87 255.08 155.87 255.08 133.81 255.08 133.81 291.12 222.04 291.12 222.04 255.08 199.99 255.08"/><polygon points="332.35 255.08 332.34 255.08 288.23 255.08 288.23 255.08 266.17 255.08 266.17 291.12 354.4 291.12 354.4 255.08 332.35 255.08"/></g><g class="cls-13"><polygon class="cls-15" points="211.02 291.12 222.04 291.12 222.04 255.09 211.02 291.12"/><polygon class="cls-15" points="244.1 183.01 244.1 183.01 233.08 219.04 244.1 219.04 255.14 219.04 266.16 183.01 244.1 183.01"/><polygon class="cls-15" points="288.23 110.91 277.2 74.87 255.14 146.96 266.17 183 288.23 110.91"/><polygon class="cls-18" points="255.14 146.96 277.2 74.87 277.19 74.87 255.14 74.87 244.11 110.91 255.14 146.96"/><polygon class="cls-18" points="222.04 183.01 222.04 183.01 211.02 219.04 222.04 219.04 233.08 219.04 244.1 183.01 222.04 183.01"/><polygon class="cls-18" points="222.04 255.08 199.99 255.08 188.96 291.12 211.02 291.12 222.04 255.09 222.04 255.08"/><polygon class="cls-16" points="299.26 146.96 277.2 219.05 288.23 255.08 266.17 255.08 266.17 255.09 266.17 291.12 277.2 291.12 310.29 183 299.26 146.96"/><polygon class="cls-2" points="133.81 255.08 133.81 291.12 144.84 291.12 155.87 255.08 133.81 255.08"/><polygon class="cls-14" points="199.99 255.08 211.01 219.04 211.02 219.04 222.04 183.01 222.04 183.01 244.1 110.91 244.11 110.91 255.14 74.87 244.1 74.87 233.08 74.87 166.9 291.12 188.96 291.12 199.99 255.08 199.99 255.08"/><polygon class="cls-19" points="310.29 183 277.2 291.12 299.26 291.12 321.32 219.05 310.29 183"/><polygon class="cls-20" points="211.01 74.87 155.87 255.08 155.87 255.08 144.84 291.12 166.9 291.12 233.08 74.87 211.01 74.87"/><polygon class="cls-21" points="266.17 255.09 266.17 255.08 266.17 255.08 266.17 255.09"/><polygon class="cls-22" points="266.17 183 266.17 183.01 266.17 183.01 266.16 183.01 255.14 219.04 266.17 219.04 277.19 219.04 277.2 219.05 299.26 146.96 288.23 110.91 266.17 183"/><polygon class="cls-23" points="354.4 255.08 332.35 255.08 321.32 291.12 343.38 291.12 354.4 255.1 354.4 255.08"/><polygon class="cls-17" points="332.35 255.08 321.32 219.05 299.26 291.12 321.32 291.12 332.35 255.08 332.35 255.08"/><polygon points="343.38 291.12 354.4 291.12 354.4 255.1 343.38 291.12"/></g><g class="cls-13"><polygon points="133.81 291.12 144.83 291.12 133.81 255.1 133.81 291.12"/><polygon class="cls-23" points="133.81 255.08 133.81 255.1 144.83 291.12 166.89 291.12 155.86 255.08 133.81 255.08"/><polygon class="cls-17" points="155.87 255.08 155.86 255.08 166.89 291.12 188.95 291.12 166.89 219.04 155.87 255.08"/><polygon class="cls-19" points="166.89 219.04 188.95 291.12 211.01 291.12 177.92 183 166.89 219.04"/><polygon class="cls-16" points="222.04 255.08 199.99 255.08 211.01 219.04 188.95 146.96 177.92 183 211.01 291.12 222.04 291.12 222.04 255.09 222.04 255.08 222.04 255.08"/><polygon class="cls-22" points="222.04 183.01 222.04 183.01 222.04 183 199.99 110.91 188.95 146.96 211.01 219.04 211.01 219.04 222.04 219.04 233.07 219.04 222.05 183.01 222.04 183.01"/><path class="cls-15" d="M200,110.91l11-36L233.08,147,222,183ZM222.05,183l11,36h22.07l-11-36H222.05Zm44.12,108.11h11l-11-36Z"/><polygon class="cls-18" points="211.01 74.87 233.07 146.95 244.1 110.91 266.17 183.01 266.17 183.01 244.11 183.01 255.13 219.04 266.17 219.04 277.19 219.04 288.23 255.08 266.17 255.08 266.17 255.08 277.19 291.12 299.25 291.12 233.08 74.87 211.01 74.87"/><polygon class="cls-14" points="244.1 74.87 233.08 74.87 299.25 291.12 321.32 291.12 255.14 74.87 244.1 74.87"/><polygon class="cls-20" points="332.35 255.08 277.19 74.87 255.14 74.87 321.32 291.12 343.38 291.12 332.35 255.08 332.35 255.08"/><polygon class="cls-2" points="332.35 255.08 343.38 291.12 354.4 291.12 354.4 255.08 332.35 255.08"/></g></g><path class="cls-2" d="M288.23,255.08,266.17,183l-22.06-72.09-11-36H166.9l-11,36L133.81,183l-22.06,72.08H89.69v36h88.24v-36H155.87l11-36h66.18l11,36H222.05v36h88.24v-36ZM222.05,183H177.93L200,110.91,222.05,183h0Z"/></g></g></svg>